{"title":"Tony Yayo ft 50 Cent - Pass The Patron [KingPinVideos]","uid":5773310,"size":66534835,"categoryP":"video","categoryS":"music_videos","magnet":"?xt=urn:btih:4cbb08f0be1e9bd4b0f0ea0a70002c2f5a88b025&amp;dn=Tony+Yayo+ft+50+Cent+-+Pass+The+Patron+%5BKingPinVideos%5D&amp;tr=udp%3A%2F%2Ftracker.openbittorrent.com%3A80&amp;tr=udp%3A%2F%2Fopen.demonii.com%3A1337&amp;tr=udp%3A%2F%2Ftracker.coppersurfer.tk%3A6969&amp;tr=udp%3A%2F%2Fexodus.desync.com%3A6969","seeders":0,"leechers":0,"uploader":"KingPinMan","files":4,"time":1282180137,"description":"[img]http://a.imageshack.us/img834/2517/tonyaopatrone.png[/img]\n\n[img]http://a.imageshack.us/img228/1098/tonyaopatrone2.png[/img]\n\n[code]General\nComplete name                    : Tony Yayo ft 50 Cent - Pass The Patron [KingPinVideos].mpg\nFormat                           : MPEG-PS\nFile size                        : 63.4 MiB\nDuration                         : 3mn 6s\nOverall bit rate                 : 2 856 Kbps\nWriting library                  : encoded by TMPGEnc 4.0 XPress Version. 4.7.4.299\n\nVideo\nID                               : 224 (0xE0)\nFormat                           : MPEG Video\nFormat version                   : Version 1\nFormat settings, BVOP            : Yes\nFormat settings, Matrix          : Default\nDuration                         : 3mn 6s\nBit rate mode                    : Constant\nBit rate                         : 2 615 Kbps\nNominal bit rate                 : 2 700 Kbps\nWidth                            : 384 pixels\nHeight                           : 208 pixels\nDisplay aspect ratio             : 16:9\nFrame rate                       : 29.970 fps\nResolution                       : 8 bits\nScan type                        : Progressive\nBits/(Pixel*Frame)               : 1.092\nStream size                      : 58.1 MiB (92%)\nWriting library                  : TMPGEnc XPress 4.7.4.299\n\nAudio\nID                               : 192 (0xC0)\nFormat                           : MPEG Audio\nFormat version                   : Version 1\nFormat profile                   : Layer 2\nDuration                         : 3mn 6s\nBit rate mode                    : Constant\nBit rate                         : 128 Kbps\nChannel(s)                       : 2 channels\nSampling rate                    : 48.0 KHz\nStream size                      : 2.84 MiB (4%)[/code]\n","torrent":{"xt":"urn:btih:4cbb08f0be1e9bd4b0f0ea0a70002c2f5a88b025","amp;dn":"Tony+Yayo+ft+50+Cent+-+Pass+The+Patron+%5BKingPinVideos%5D","amp;tr":["udp%3A%2F%2Ftracker.openbittorrent.com%3A80","udp%3A%2F%2Fopen.demonii.com%3A1337","udp%3A%2F%2Ftracker.coppersurfer.tk%3A6969","udp%3A%2F%2Fexodus.desync.com%3A6969"],"infoHash":"4cbb08f0be1e9bd4b0f0ea0a70002c2f5a88b025","infoHashBuffer":{"type":"Buffer","data":[76,187,8,240,190,30,155,212,176,240,234,10,112,0,44,47,90,136,176,37]},"announce":[],"urlList":[]}}